<svg xmlns="http://www.w3.org/2000/svg" viewBox="0 0 18 18">
    <path d="M7.9545,9.99794041 L8.04030732,10.0953758 C8.3223777,10.4587468 8.33491892,10.9709517 8.04852253,11.3704971 L7.95543622,11.4789497 L3.57193453,15.86064 L6.30555655,15.8615689 C6.7012696,15.8293038 7.08258528,16.0203577 7.29142625,16.3575934 C7.50117516,16.6962952 7.50117516,17.1245273 7.29142625,17.4632291 C7.10904557,17.7577368 6.79367415,17.9426225 6.42473278,17.9595243 L6.334,17.9574112 L1.05,17.9574112 C0.523073211,17.9574112 0.0798098982,17.5672269 0.00717953389,17.0258902 L0,16.9074112 L0.0015,11.5880423 C0.0516512023,11.0480901 0.504723782,10.6351492 1.047,10.6351492 C1.53584591,10.6351492 1.95821636,10.9722282 2.07382884,11.4682284 L2.094,11.6204112 L2.094,14.3767456 L6.4755,9.99794041 C6.8848637,9.5918237 7.5451363,9.5918237 7.9545,9.99794041 Z"></path>
    <path d="M16.9819349,0 C17.2292338,0.0175889827 17.4653723,0.122249976 17.6474747,0.30291123 C17.8042983,0.459718743 17.9071784,0.661864561 17.9453729,0.909384508 L17.9550147,1.05256368 L17.9525,6.30204226 C17.9893441,6.69872354 17.7985197,7.08208857 17.4598178,7.29183748 C17.121116,7.50158639 16.692884,7.50158639 16.3541822,7.29183748 C16.0596745,7.1094568 15.8747888,6.79408538 15.8578869,6.42514401 L15.86,6.33449213 L15.8593618,3.57364477 L11.4564149,7.97299629 C11.0844275,8.28380861 10.5497437,8.29854845 10.1413501,7.9974608 L10.040708,7.90970322 C9.69794061,7.56693583 9.63554593,7.03570057 9.89898849,6.60206807 L9.99849044,6.47094604 L14.3746343,2.09401761 L11.587631,2.09291123 C11.1008802,2.04770141 10.7114939,1.67300497 10.6422484,1.16843841 L10.6347379,1.04741123 C10.6347379,0.558565324 10.971817,0.136194867 11.4678171,0.0205823928 L11.6198731,0.000411252758 L16.9819349,0 Z"></path>
</svg>